<svg width="58" height="59" viewBox="0 0 58 59" fill="none" xmlns="http://www.w3.org/2000/svg">
<rect width="54.0678" height="54.0678" rx="5" fill="url(#paint0_linear)"/>
<path d="M40.6307 24.5924C45.2067 24.5924 48.6627 25.2324 50.9987 26.5124C53.3347 27.7924 54.5027 30.0484 54.5027 33.2804C54.5027 35.2324 54.0387 36.8804 53.1107 38.2244C52.2147 39.5684 50.9187 40.3844 49.2227 40.6724V40.9124C50.3747 41.1364 51.4147 41.5364 52.3427 42.1124C53.2707 42.6884 54.0067 43.5204 54.5507 44.6084C55.0947 45.6964 55.3667 47.1364 55.3667 48.9284C55.3667 52.0324 54.2467 54.4644 52.0067 56.2244C49.7667 57.9844 46.6947 58.8644 42.7907 58.8644H29.9747V24.5924H40.6307ZM41.4467 38.1764C43.5587 38.1764 45.0147 37.8404 45.8147 37.1684C46.6467 36.4964 47.0627 35.5204 47.0627 34.2404C47.0627 32.9284 46.5827 31.9844 45.6227 31.4084C44.6627 30.8324 43.1427 30.5444 41.0627 30.5444H37.2227V38.1764H41.4467ZM37.2227 43.9364V52.8644H41.9747C44.1507 52.8644 45.6707 52.4484 46.5347 51.6164C47.3987 50.7524 47.8307 49.6164 47.8307 48.2084C47.8307 46.9284 47.3827 45.9044 46.4867 45.1364C45.6227 44.3364 44.0387 43.9364 41.7347 43.9364H37.2227Z" fill="white"/>
<defs>
<linearGradient id="paint0_linear" x1="29.2867" y1="22.9788" x2="13.9675" y2="43.2542" gradientUnits="userSpaceOnUse">
<stop stop-color="#284B63"/>
<stop offset="1" stop-color="#284B63" stop-opacity="0"/>
</linearGradient>
</defs>
</svg>
